<?xml version="1.0" encoding="UTF-8" standalone="no"?>
<!-- Created with Inkscape (http://www.inkscape.org/) -->

<svg
   width="40"
   height="40"
   viewBox="0 0 10.583333 10.583333"
   version="1.1"
   id="svg8"
   inkscape:version="1.4 (e7c3feb1, 2024-10-09)"
   sodipodi:docname="favicon.svg"
   inkscape:export-filename="../Documents/GitHub/wizard-wizard/Documents/GitHub/wizard-wizard/public/wizard-hat.svg"
   inkscape:export-xdpi="96"
   inkscape:export-ydpi="96"
   xmlns:inkscape="http://www.inkscape.org/namespaces/inkscape"
   xmlns:sodipodi="http://sodipodi.sourceforge.net/DTD/sodipodi-0.dtd"
   xmlns="http://www.w3.org/2000/svg"
   xmlns:svg="http://www.w3.org/2000/svg"
   xmlns:rdf="http://www.w3.org/1999/02/22-rdf-syntax-ns#"
   xmlns:cc="http://creativecommons.org/ns#"
   xmlns:dc="http://purl.org/dc/elements/1.1/">
  <defs
     id="defs2" />
  <sodipodi:namedview
     id="base"
     pagecolor="#ffffff"
     bordercolor="#666666"
     borderopacity="1.0"
     inkscape:pageopacity="0.0"
     inkscape:pageshadow="2"
     inkscape:zoom="8.3341466"
     inkscape:cx="21.297921"
     inkscape:cy="20.398009"
     inkscape:document-units="mm"
     inkscape:current-layer="layer1"
     showgrid="false"
     inkscape:window-width="1472"
     inkscape:window-height="805"
     inkscape:window-x="0"
     inkscape:window-y="33"
     inkscape:window-maximized="0"
     fit-margin-top="0"
     fit-margin-left="0"
     fit-margin-right="0"
     fit-margin-bottom="0"
     inkscape:showpageshadow="2"
     inkscape:pagecheckerboard="0"
     inkscape:deskcolor="#d1d1d1" />
  <metadata
     id="metadata5">
    <rdf:RDF>
      <cc:Work
         rdf:about="">
        <dc:format>image/svg+xml</dc:format>
        <dc:type
           rdf:resource="http://purl.org/dc/dcmitype/StillImage" />
      </cc:Work>
    </rdf:RDF>
  </metadata>
  <g
     inkscape:label="Layer 1"
     inkscape:groupmode="layer"
     id="layer1"
     transform="translate(442.06412,-896.64851)">
    <circle
       style="fill:#f0b100;stroke:#f0b100;stroke-width:0.420929;fill-opacity:1;stroke-opacity:1"
       id="path1"
       cx="-436.77246"
       cy="901.94019"
       r="5.081202" />
    <path
       style="fill:currentColor;stroke-width:0.0156485"
       d="m -437.00709,905.03905 c -1.45027,-0.0758 -2.64415,-0.36161 -3.54413,-0.84828 -0.28016,-0.15151 -0.71554,-0.45429 -0.71915,-0.50014 -4.5e-4,-0.006 0.0818,-0.0118 0.18295,-0.0118 0.66804,0 1.32495,-0.17301 2.14602,-0.56505 l 0.19388,-0.0926 0.16537,0.0559 c 0.18827,0.0637 0.43344,0.13192 0.6467,0.18005 0.17172,0.0388 0.57627,0.0617 0.57627,0.0326 0,-0.01 -0.009,-0.0178 -0.0211,-0.0178 -0.0371,0 -0.35575,-0.1394 -0.54764,-0.23957 -0.20519,-0.10712 -0.45501,-0.28761 -0.59315,-0.42854 l -0.0901,-0.0918 0.0699,-0.19509 c 0.0384,-0.1073 0.14784,-0.41692 0.24309,-0.68802 0.0953,-0.27112 0.19887,-0.56599 0.23025,-0.65529 0.0654,-0.1863 0.0429,-0.16603 0.41925,-0.37772 0.11188,-0.0629 0.21399,-0.12432 0.2269,-0.13639 0.0204,-0.0191 0.0185,-0.0209 -0.0157,-0.0135 -0.2069,0.0446 -0.45387,0.073 -0.55339,0.0638 -0.31498,-0.0292 -0.81378,0.0905 -1.58983,0.38147 -0.11585,0.0434 -0.21395,0.0756 -0.21802,0.0716 -0.0115,-0.0115 0.21937,-0.34398 0.36439,-0.52471 0.20971,-0.26136 0.43281,-0.46142 0.8467,-0.75924 0.0964,-0.0693 1.37038,-0.78438 1.48269,-0.83215 0.0844,-0.0359 0.29208,-0.0816 0.37086,-0.0816 0.0946,0 0.21164,0.0532 0.27017,0.12274 0.0612,0.0728 0.28601,0.45469 0.38615,0.65606 0.11953,0.24038 0.16551,0.35893 0.22045,0.56831 0.0844,0.32144 0.0854,0.34398 0.0414,0.87497 -0.0217,0.26251 -0.0441,0.54066 -0.0499,0.61811 l -0.0103,0.14084 0.17614,-0.26296 c 0.0969,-0.14462 0.18182,-0.25727 0.18877,-0.25031 0.007,0.006 0.072,0.14321 0.14452,0.3028 0.0726,0.15959 0.16303,0.35673 0.2011,0.4381 0.0381,0.0813 0.1639,0.35815 0.27962,0.61507 l 0.2104,0.46714 0.0939,0.0486 c 0.60735,0.31435 1.21488,0.49095 2.003,0.58225 0.12049,0.0139 0.2402,0.0304 0.26603,0.0366 l 0.0469,0.0112 -0.0939,0.0743 c -1.10169,0.87208 -2.81578,1.32567 -4.64759,1.22986 z"
       id="path1000-8-8"
       inkscape:connector-curvature="0"
       sodipodi:nodetypes="scccccccsscccccccccscccccscaccccccccaccccccss"
       transform="translate(-6.4583334e-6,-1.2083333e-5)" />
  </g>
</svg>
